# xmcd CD database file
#
# Track frame offsets:
#	150
#	22518
#	37555
#	59418
#	81980
#	110175
#	144475
#	168363
#	194815
#	217013
#	245103
#	262375
#
# Disc length: 3817 seconds
#
# Revision: 2
# Processed by: cddbd v1.4PL0 Copyright (c) Steve Scherf et al.
# Submitted via: CDex 1.50beta10
#
DISCID=b30ee70c
DTITLE=Larry Garner - You Need To Live A Little
DYEAR=1994
DGENRE=Blues
TTITLE0=Another Bad Day
TTITLE1=Someone New
TTITLE2=Miracles Of Time
TTITLE3=Four Cars Running
TTITLE4=Live A Little
TTITLE5=The Preacher Man
TTITLE6=Shak Bully
TTITLE7=Rats And Roaches In My Kitchen
TTITLE8=Don't Run Talking
TTITLE9=Keep Playing The Blues
TTITLE10=Had To Quit Drinking
TTITLE11=Nobody's Special
EXTD=YEAR: 1994
EXTT0=
EXTT1=
EXTT2=
EXTT3=
EXTT4=
EXTT5=
EXTT6=
EXTT7=
EXTT8=
EXTT9=
EXTT10=
EXTT11=
PLAYORDER=
